HIERARCHY
ROOT Hips
{
	OFFSET 0.000000 0.000000 0.000000
	CHANNELS 6 Xposition Yposition Zposition Zrotation Yrotation Xrotation 
	JOINT LowerBack
	{
		OFFSET 0.000000 0.000000 0.000000
		CHANNELS 3 Zrotation Yrotation Xrotation
		JOINT Spine
		{
			OFFSET 0.028270 2.035590 -0.193380
			CHANNELS 3 Zrotation Yrotation Xrotation
			JOINT Spine1
			{
				OFFSET 0.056720 2.048850 -0.042750
				CHANNELS 3 Zrotation Yrotation Xrotation
				JOINT Neck
				{
					OFFSET 0.000000 0.000000 0.000000
					CHANNELS 3 Zrotation Yrotation Xrotation
					JOINT Neck1
					{
						OFFSET -0.054170 1.746240 0.172020
						CHANNELS 3 Zrotation Yrotation Xrotation
						JOINT Head
						{
							OFFSET 0.104070 1.761360 -0.123970
							CHANNELS 3 Zrotation Yrotation Xrotation
							End Site
							{
								OFFSET 0.000000 0.000000 0.000000
							}
						}
					}
				}
				JOINT LeftShoulder
				{
					OFFSET 0.000000 0.000000 0.000000
					CHANNELS 3 Zrotation Yrotation Xrotation
					JOINT LeftArm
					{
						OFFSET 3.362410 1.200890 -0.311210
						CHANNELS 3 Zrotation Yrotation Xrotation
						JOINT LeftForeArm
						{
							OFFSET 4.983000 -0.000000 -0.000000
							CHANNELS 3 Zrotation Yrotation Xrotation
							JOINT LeftHand
							{
								OFFSET 3.483560 -0.000000 -0.000000
								CHANNELS 3 Zrotation Yrotation Xrotation
								JOINT LeftFingerBase
								{
									OFFSET 0.000000 0.000000 0.000000
									CHANNELS 3 Zrotation Yrotation Xrotation
									JOINT LeftHandIndex1
									{
										OFFSET 0.715260 -0.000000 -0.000000
										CHANNELS 3 Zrotation Yrotation Xrotation
										End Site
										{
											OFFSET 0.000000 0.000000 0.000000
										}
									}
								}
								JOINT LThumb
								{
									OFFSET 0.000000 0.000000 0.000000
									CHANNELS 3 Zrotation Yrotation Xrotation
									End Site
									{
										OFFSET 0.000000 0.000000 0.000000
									}
								}
							}
						}
					}
				}
				JOINT RightShoulder
				{
					OFFSET 0.000000 0.000000 0.000000
					CHANNELS 3 Zrotation Yrotation Xrotation
					JOINT RightArm
					{
						OFFSET -3.136600 1.374050 -0.404650
						CHANNELS 3 Zrotation Yrotation Xrotation
						JOINT RightForeArm
						{
							OFFSET -5.241900 -0.000000 -0.000000
							CHANNELS 3 Zrotation Yrotation Xrotation
							JOINT RightHand
							{
								OFFSET -3.444170 -0.000000 -0.000000
								CHANNELS 3 Zrotation Yrotation Xrotation
								JOINT RightFingerBase
								{
									OFFSET 0.000000 0.000000 0.000000
									CHANNELS 3 Zrotation Yrotation Xrotation
									JOINT RightHandIndex1
									{
										OFFSET -0.622530 -0.000000 -0.000000
										CHANNELS 3 Zrotation Yrotation Xrotation
										End Site
										{
											OFFSET 0.000000 0.000000 0.000000
										}
									}
								}
								JOINT RThumb
								{
									OFFSET 0.000000 0.000000 0.000000
									CHANNELS 3 Zrotation Yrotation Xrotation
									End Site
									{
										OFFSET 0.000000 0.000000 0.000000
									}
								}
							}
						}
					}
				}
			}
		}
	}
}
}
MOTION
Frames: 15
Frame Time: 0.008333
-13.034875 15.986260 -0.748027 149.841571 88.242000 174.079988 4.048222 -3.673953 9.540352 0.292563 -3.554705 -0.940986 -5.449137 -3.473898 0.105705 7.616827 -12.399317 -7.093773 -2.855820 -0.199369 -0.179225 0.000000 0.000000 0.000000 5.890362 4.597294 0.821349 -60.468819 -3.483247 5.103648 -179.612504 -86.030784 -179.990087 -2.370445 7.038499 -0.139676 -0.008940 0.238223 0.000000 0.000000 0.000000 0.000000 0.000000 0.000000 0.000000 9.896314 -9.636455 1.580282 69.368476 -14.370022 2.103564 1.007913 64.752626 -0.009196 -3.469671 -1.336335 0.037908 0.089924 -0.137377 -0.000000 0.000000 0.000000 0.000000 0.000000 0.000000 0.000000 
-12.891862 15.976519 -0.719712 150.623123 88.110724 174.831782 4.297999 -3.698964 9.547758 0.342564 -3.580041 -0.948583 -5.450094 -3.502719 0.080117 7.682393 -12.288499 -7.084299 -2.877168 -0.200999 -0.176432 0.000000 0.000000 0.000000 5.884555 4.524801 0.851682 -60.921730 -2.896881 5.150311 -179.661120 -86.689949 -179.990575 -2.302116 7.009143 -0.134967 -0.010143 0.235868 0.000000 0.000000 0.000000 0.000000 0.000000 0.000000 0.000000 10.063379 -9.550144 1.569507 69.315184 -13.962138 1.917979 1.015162 64.581235 -0.009620 -3.583753 -1.373716 0.040207 0.091449 -0.138254 -0.000000 0.000000 0.000000 0.000000 0.000000 0.000000 0.000000 
-12.750126 15.968572 -0.691171 151.178236 87.975212 175.395480 4.535746 -3.715890 9.533395 0.389255 -3.597954 -0.959831 -5.453731 -3.524429 0.056123 7.761929 -12.170368 -7.067232 -2.897595 -0.202659 -0.171438 0.000000 0.000000 0.000000 5.905690 4.438172 0.879738 -61.417494 -2.318692 5.227515 -179.715666 -87.446240 -179.991160 -2.219678 6.983168 -0.129557 -0.011541 0.233196 0.000000 0.000000 0.000000 0.000000 0.000000 0.000000 0.000000 10.243078 -9.457180 1.556543 69.279272 -13.515850 1.716727 1.021228 64.410657 -0.010105 -3.711152 -1.415616 0.043007 0.093059 -0.139348 -0.000000 0.000000 0.000000 0.000000 0.000000 0.000000 0.000000 
-12.609921 15.962304 -0.662363 151.442984 87.834228 175.705476 4.757322 -3.724773 9.499352 0.431965 -3.608365 -0.974147 -5.459575 -3.538866 0.033810 7.852948 -12.044767 -7.043222 -2.916426 -0.204288 -0.164479 0.000000 0.000000 0.000000 5.953996 4.339762 0.906461 -61.948813 -1.754910 5.337274 -179.775410 -88.297482 -179.991795 -2.129549 6.960064 -0.123748 -0.013051 0.230194 0.000000 0.000000 0.000000 0.000000 0.000000 0.000000 0.000000 10.430009 -9.355966 1.541170 69.265207 -13.038872 1.499037 1.025410 64.252576 -0.010646 -3.848539 -1.459979 0.046006 0.094682 -0.140705 -0.000000 0.000000 0.000000 0.000000 0.000000 0.000000 0.000000 
-12.471559 15.957619 -0.633309 151.407736 87.688721 175.749293 4.960947 -3.725703 9.449345 0.470458 -3.611225 -0.990754 -5.467072 -3.545911 0.012920 7.952258 -11.911039 -7.013007 -2.933040 -0.205827 -0.155854 0.000000 0.000000 0.000000 6.027517 4.231947 0.933117 -62.507048 -1.209426 5.479751 -179.839458 -89.238211 -179.992439 -2.038544 6.939122 -0.118040 -0.014584 0.226854 0.000000 0.000000 0.000000 0.000000 0.000000 0.000000 0.000000 10.617877 -9.244338 1.523403 69.276112 -12.536922 1.266267 1.027144 64.116325 -0.011230 -3.993274 -1.503757 0.049205 0.096257 -0.142376 -0.000000 0.000000 0.000000 0.000000 0.000000 0.000000 0.000000 
-12.335331 15.954443 -0.604050 151.070596 87.540595 175.521569 5.145093 -3.719533 9.388062 0.504661 -3.607202 -1.008637 -5.475310 -3.546147 -0.006473 8.056023 -11.771301 -6.977964 -2.946338 -0.207170 -0.146052 0.000000 0.000000 0.000000 6.120143 4.116818 0.960945 -63.080420 -0.682598 5.652850 0.093404 -89.742480 0.006824 -1.952391 6.920522 -0.112633 -0.016068 0.223155 0.000000 0.000000 0.000000 0.000000 0.000000 0.000000 0.000000 10.797686 -9.123489 1.503503 69.314847 -12.007908 1.027477 1.026220 64.003838 -0.011854 -4.143792 -1.541303 0.052305 0.097751 -0.144415 -0.000000 0.000000 0.000000 0.000000 0.000000 0.000000 0.000000 
-12.201418 15.952798 -0.574923 150.606129 87.396292 175.192348 5.316900 -3.704256 9.321000 0.535541 -3.594348 -1.027285 -5.485024 -3.537657 -0.026487 8.162661 -11.617495 -6.937040 -2.957457 -0.208408 -0.134900 0.000000 0.000000 0.000000 6.229203 3.997690 0.991675 -63.663796 -0.179762 5.860708 0.023333 -88.647631 0.006343 -1.873810 6.903681 -0.107729 -0.017523 0.219116 0.000000 0.000000 0.000000 0.000000 0.000000 0.000000 0.000000 10.971035 -8.983107 1.481289 69.376145 -11.469003 0.777012 1.021825 63.935828 -0.012514 -4.295965 -1.575915 0.055404 0.099089 -0.146822 -0.000000 0.000000 0.000000 0.000000 0.000000 0.000000 0.000000 
-12.070096 15.952729 -0.545806 149.914033 87.256036 174.656198 5.470960 -3.683280 9.254473 0.562605 -3.575632 -1.045141 -5.494571 -3.523270 -0.046141 8.268319 -11.454045 -6.892172 -2.964586 -0.209373 -0.123057 0.000000 0.000000 0.000000 6.343246 3.878594 1.026444 -64.239315 0.303102 6.099298 -0.048044 -87.496459 0.005782 -1.804401 6.890659 -0.103424 -0.018947 0.214695 0.000000 0.000000 0.000000 0.000000 0.000000 0.000000 0.000000 11.126058 -8.828459 1.456896 69.462690 -10.904898 0.535552 1.014385 63.898911 -0.013196 -4.449804 -1.596754 0.058104 0.100262 -0.149655 -0.000000 0.000000 0.000000 0.000000 0.000000 0.000000 0.000000 
-11.941461 15.954253 -0.517129 149.234958 87.127747 174.148778 5.619659 -3.653898 9.193202 0.587717 -3.548584 -1.062154 -5.505000 -3.500634 -0.068222 8.371714 -11.272006 -6.840915 -2.969294 -0.210206 -0.109902 0.000000 0.000000 0.000000 6.457529 3.759642 1.066389 -64.801998 0.764706 6.374236 -0.120571 -86.293825 0.005232 -1.740657 6.880203 -0.099523 -0.020434 0.209941 0.000000 0.000000 0.000000 0.000000 0.000000 0.000000 0.000000 11.265885 -8.648854 1.430324 69.565592 -10.333668 0.297718 1.003414 63.911800 -0.013899 -4.601157 -1.609277 0.060403 0.101218 -0.152872 -0.000000 0.000000 0.000000 0.000000 0.000000 0.000000 0.000000 
-11.815694 15.957479 -0.488806 148.486265 87.010409 173.580984 5.758787 -3.619334 9.143583 0.610439 -3.515963 -1.076793 -5.515342 -3.472381 -0.091755 8.471668 -11.074887 -6.784380 -2.970675 -0.210819 -0.095835 0.000000 0.000000 0.000000 6.562141 3.645578 1.111968 -65.336767 1.206753 6.687083 -0.193397 -85.055797 0.004672 -1.679641 6.874685 -0.095921 -0.022051 0.204823 0.000000 0.000000 0.000000 0.000000 0.000000 0.000000 0.000000 11.385564 -8.449545 1.401196 69.682688 -9.742934 0.082591 0.989409 63.962806 -0.014612 -4.750619 -1.606689 0.062002 0.101963 -0.156481 -0.000000 0.000000 0.000000 0.000000 0.000000 0.000000 0.000000 
-11.692762 15.962437 -0.460997 147.763255 86.906351 173.043023 5.893528 -3.579511 9.109333 0.631673 -3.477687 -1.088582 -5.525750 -3.438458 -0.117258 8.567624 -10.862088 -6.721616 -2.969145 -0.211251 -0.080598 0.000000 0.000000 0.000000 6.650702 3.537350 1.163128 -65.834401 1.630002 7.044194 -0.266132 -83.792023 0.004071 -1.615252 6.874224 -0.092120 -0.023897 0.199364 0.000000 0.000000 0.000000 0.000000 0.000000 0.000000 0.000000 11.485599 -8.230495 1.369294 69.806438 -9.134976 -0.102106 0.972631 64.053269 -0.015336 -4.897482 -1.589842 0.063002 0.102508 -0.160431 -0.000000 0.000000 0.000000 0.000000 0.000000 0.000000 0.000000 
-11.572650 15.969152 -0.433714 147.091431 86.814838 172.555754 6.025625 -3.535278 9.093428 0.651806 -3.434495 -1.096990 -5.536085 -3.399594 -0.144574 8.659706 -10.634092 -6.651615 -2.964971 -0.211534 -0.063905 0.000000 0.000000 0.000000 6.717505 3.436549 1.219426 -66.286687 2.034908 7.452900 -0.338437 -82.511593 0.003404 -1.542167 6.878642 -0.087820 -0.026050 0.193583 0.000000 0.000000 0.000000 0.000000 0.000000 0.000000 0.000000 11.567056 -7.993571 1.334124 69.930373 -8.509858 -0.247938 0.953460 64.181031 -0.016064 -5.040831 -1.559473 0.063201 0.102863 -0.164661 -0.000000 0.000000 0.000000 0.000000 0.000000 0.000000 0.000000 
-11.455316 15.977630 -0.406925 146.472657 86.733687 172.116593 6.154575 -3.487479 9.097416 0.670791 -3.387127 -1.101779 -5.546247 -3.356528 -0.173596 8.748579 -10.390567 -6.573162 -2.958504 -0.211710 -0.045374 0.000000 0.000000 0.000000 6.759272 3.344217 1.280247 -66.686753 2.421822 7.921633 -0.410030 -81.222725 0.002656 -1.456235 6.887657 -0.082921 -0.028560 0.187500 0.000000 0.000000 0.000000 0.000000 0.000000 0.000000 0.000000 11.631987 -7.739706 1.295209 70.048524 -7.870077 -0.349162 0.932248 64.344616 -0.016794 -5.179758 -1.517214 0.062800 0.103039 -0.169103 -0.000000 0.000000 0.000000 0.000000 0.000000 0.000000 0.000000 
-11.340583 15.987816 -0.380569 145.901370 86.660118 171.717700 6.279739 -3.436695 9.121035 0.688627 -3.336142 -1.102855 -5.555913 -3.309809 -0.203398 8.834571 -10.134577 -6.485513 -2.949854 -0.211803 -0.024727 0.000000 0.000000 0.000000 6.773896 3.260944 1.344412 -67.029932 2.790875 8.458649 -0.480702 -79.932348 0.001826 -1.356444 6.900287 -0.077121 -0.031417 0.181131 0.000000 0.000000 0.000000 0.000000 0.000000 0.000000 0.000000 11.681717 -7.473428 1.252099 70.155694 -7.216017 -0.399373 0.909483 64.540749 -0.017520 -5.313830 -1.465087 0.061699 0.103066 -0.173679 -0.000000 0.000000 0.000000 0.000000 0.000000 0.000000 0.000000 
-11.228323 15.999632 -0.354478 145.314240 86.589222 171.293346 6.395848 -3.384088 9.163572 0.704542 -3.282548 -1.099900 -5.564428 -3.260373 -0.232040 8.918341 -9.871194 -6.389202 -2.938839 -0.211797 -0.002054 0.000000 0.000000 0.000000 6.761472 3.190618 1.410651 -67.313592 3.138973 9.072415 -0.550401 -78.645774 0.000956 -1.246924 6.916032 -0.070722 -0.034548 0.174476 0.000000 0.000000 0.000000 0.000000 0.000000 0.000000 0.000000 11.717405 -7.201259 1.204174 70.248571 -6.545270 -0.392061 0.885679 64.763898 -0.018239 -5.442323 -1.404820 0.059999 0.102972 -0.178314 -0.000000 0.000000 0.000000 0.000000 0.000000 0.000000 0.000000 
